# xmcd
#
# Track frame offsets:
#	150
#	10825
#	31880
#	47175
#	66907
#	82905
#	100305
#	109947
#	124015
#	135035
#	156787
#	173710
#	188165
#	200445
#	219215
#	238552
#	255882
#	275020
#	284662
#	301887
#	318075
#
# Disc length: 4444 seconds
#
# Revision: 0
# Processed by: cddbd v1.5.2PL0 Copyright (c) Steve Scherf et al.
# Submitted via: EasyCDDAExtractor 10.0.2.1
#
DISCID=16115a15
DTITLE=Radiohead - Oxford Devils
DYEAR=1900
DGENRE=
TTITLE0=Banana Co
TTITLE1=Talk Show Host
TTITLE2=Bishops Robes
TTITLE3=Polyethylene (Parts 1 and 2)
TTITLE4=Pearly
TTITLE5=A Reminder
TTITLE6=Melatonin
TTITLE7=Meeting In The Aisle
TTITLE8=Lull
TTITLE9=The Bends (Demo)
TTITLE10=Just (Demo)
TTITLE11=Nice Dream (Demo)
TTITLE12=Stupid Car (Tinnitus Mix '93)
TTITLE13=Stop Whispering (U.S.Remix '93)
TTITLE14=Blow Out (Phil Vinnall Remix '93)
TTITLE15=Killer Cars (Mogadon Version '95)
TTITLE16=Talk Show Host (Nellee Hooper Remix '97)
TTITLE17=Talk Show Host (Romeo and Juliet Reprise '97)
TTITLE18=No Surprises (Later With Jools Holland, May '97)
TTITLE19=Electroneering (Tonight With Jay Leno, Sept. '97)
TTITLE20=Nobody Does Better (MTV Europe, Aug. '97)
EXTD=
EXTT0=
EXTT1=
EXTT2=
EXTT3=
EXTT4=
EXTT5=
EXTT6=
EXTT7=
EXTT8=
EXTT9=
EXTT10=
EXTT11=
EXTT12=
EXTT13=
EXTT14=
EXTT15=
EXTT16=
EXTT17=
EXTT18=
EXTT19=
EXTT20=
PLAYORDER=
